let cylinderObj = `
v 0.000000 -0.500000 -0.500000
v 0.000000 0.500000 -0.500000
v 0.031395 -0.500000 -0.499013
v 0.031395 0.500000 -0.499013
v 0.062667 -0.500000 -0.496057
v 0.062667 0.500000 -0.496057
v 0.093691 -0.500000 -0.491144
v 0.093691 0.500000 -0.491144
v 0.124345 -0.500000 -0.484292
v 0.124345 0.500000 -0.484292
v 0.154509 -0.500000 -0.475528
v 0.154509 0.500000 -0.475528
v 0.184062 -0.500000 -0.464888
v 0.184062 0.500000 -0.464888
v 0.212890 -0.500000 -0.452414
v 0.212890 0.500000 -0.452414
v 0.240877 -0.500000 -0.438153
v 0.240877 0.500000 -0.438153
v 0.267913 -0.500000 -0.422164
v 0.267913 0.500000 -0.422164
v 0.293893 -0.500000 -0.404508
v 0.293893 0.500000 -0.404508
v 0.318712 -0.500000 -0.385257
v 0.318712 0.500000 -0.385257
v 0.342274 -0.500000 -0.364484
v 0.342274 0.500000 -0.364484
v 0.364484 -0.500000 -0.342274
v 0.364484 0.500000 -0.342274
v 0.385257 -0.500000 -0.318712
v 0.385257 0.500000 -0.318712
v 0.404509 -0.500000 -0.293893
v 0.404509 0.500000 -0.293893
v 0.422164 -0.500000 -0.267913
v 0.422164 0.500000 -0.267913
v 0.438153 -0.500000 -0.240877
v 0.438153 0.500000 -0.240877
v 0.452414 -0.500000 -0.212890
v 0.452414 0.500000 -0.212890
v 0.464888 -0.500000 -0.184062
v 0.464888 0.500000 -0.184062
v 0.475528 -0.500000 -0.154508
v 0.475528 0.500000 -0.154508
v 0.484292 -0.500000 -0.124345
v 0.484292 0.500000 -0.124345
v 0.491144 -0.500000 -0.093690
v 0.491144 0.500000 -0.093690
v 0.496057 -0.500000 -0.062666
v 0.496057 0.500000 -0.062666
v 0.499013 -0.500000 -0.031395
v 0.499013 0.500000 -0.031395
v 0.500000 -0.500000 0.000000
v 0.500000 0.500000 0.000000
v 0.499013 -0.500000 0.031395
v 0.499013 0.500000 0.031395
v 0.496057 -0.500000 0.062667
v 0.496057 0.500000 0.062667
v 0.491144 -0.500000 0.093691
v 0.491144 0.500000 0.093691
v 0.484292 -0.500000 0.124345
v 0.484292 0.500000 0.124345
v 0.475528 -0.500000 0.154509
v 0.475528 0.500000 0.154509
v 0.464888 -0.500000 0.184063
v 0.464888 0.500000 0.184063
v 0.452413 -0.500000 0.212890
v 0.452413 0.500000 0.212890
v 0.438153 -0.500000 0.240877
v 0.438153 0.500000 0.240877
v 0.422164 -0.500000 0.267914
v 0.422164 0.500000 0.267914
v 0.404508 -0.500000 0.293893
v 0.404508 0.500000 0.293893
v 0.385256 -0.500000 0.318712
v 0.385256 0.500000 0.318712
v 0.364484 -0.500000 0.342274
v 0.364484 0.500000 0.342274
v 0.342273 -0.500000 0.364485
v 0.342273 0.500000 0.364485
v 0.318712 -0.500000 0.385257
v 0.318712 0.500000 0.385257
v 0.293892 -0.500000 0.404509
v 0.293892 0.500000 0.404509
v 0.267913 -0.500000 0.422164
v 0.267913 0.500000 0.422164
v 0.240876 -0.500000 0.438154
v 0.240876 0.500000 0.438154
v 0.212889 -0.500000 0.452414
v 0.212889 0.500000 0.452414
v 0.184062 -0.500000 0.464888
v 0.184062 0.500000 0.464888
v 0.154508 -0.500000 0.475528
v 0.154508 0.500000 0.475528
v 0.124344 -0.500000 0.484292
v 0.124344 0.500000 0.484292
v 0.093690 -0.500000 0.491144
v 0.093690 0.500000 0.491144
v 0.062666 -0.500000 0.496057
v 0.062666 0.500000 0.496057
v 0.031395 -0.500000 0.499013
v 0.031395 0.500000 0.499013
v -0.000001 -0.500000 0.500000
v -0.000001 0.500000 0.500000
v -0.031396 -0.500000 0.499013
v -0.031396 0.500000 0.499013
v -0.062667 -0.500000 0.496057
v -0.062667 0.500000 0.496057
v -0.093691 -0.500000 0.491144
v -0.093691 0.500000 0.491144
v -0.124345 -0.500000 0.484291
v -0.124345 0.500000 0.484291
v -0.154509 -0.500000 0.475528
v -0.154509 0.500000 0.475528
v -0.184063 -0.500000 0.464888
v -0.184063 0.500000 0.464888
v -0.212890 -0.500000 0.452413
v -0.212890 0.500000 0.452413
v -0.240877 -0.500000 0.438153
v -0.240877 0.500000 0.438153
v -0.267914 -0.500000 0.422164
v -0.267914 0.500000 0.422164
v -0.293893 -0.500000 0.404508
v -0.293893 0.500000 0.404508
v -0.318713 -0.500000 0.385256
v -0.318713 0.500000 0.385256
v -0.342274 -0.500000 0.364484
v -0.342274 0.500000 0.364484
v -0.364485 -0.500000 0.342273
v -0.364485 0.500000 0.342273
v -0.385257 -0.500000 0.318712
v -0.385257 0.500000 0.318712
v -0.404509 -0.500000 0.293892
v -0.404509 0.500000 0.293892
v -0.422164 -0.500000 0.267913
v -0.422164 0.500000 0.267913
v -0.438154 -0.500000 0.240876
v -0.438154 0.500000 0.240876
v -0.452414 -0.500000 0.212889
v -0.452414 0.500000 0.212889
v -0.464888 -0.500000 0.184062
v -0.464888 0.500000 0.184062
v -0.475528 -0.500000 0.154508
v -0.475528 0.500000 0.154508
v -0.484292 -0.500000 0.124344
v -0.484292 0.500000 0.124344
v -0.491144 -0.500000 0.093690
v -0.491144 0.500000 0.093690
v -0.496057 -0.500000 0.062666
v -0.496057 0.500000 0.062666
v -0.499013 -0.500000 0.031395
v -0.499013 0.500000 0.031395
v -0.500000 -0.500000 -0.000001
v -0.500000 0.500000 -0.000001
v -0.499013 -0.500000 -0.031396
v -0.499013 0.500000 -0.031396
v -0.496057 -0.500000 -0.062667
v -0.496057 0.500000 -0.062667
v -0.491143 -0.500000 -0.093691
v -0.491143 0.500000 -0.093691
v -0.484291 -0.500000 -0.124346
v -0.484291 0.500000 -0.124346
v -0.475528 -0.500000 -0.154509
v -0.475528 0.500000 -0.154509
v -0.464888 -0.500000 -0.184063
v -0.464888 0.500000 -0.184063
v -0.452413 -0.500000 -0.212890
v -0.452413 0.500000 -0.212890
v -0.438153 -0.500000 -0.240878
v -0.438153 0.500000 -0.240878
v -0.422164 -0.500000 -0.267914
v -0.422164 0.500000 -0.267914
v -0.404508 -0.500000 -0.293893
v -0.404508 0.500000 -0.293893
v -0.385256 -0.500000 -0.318713
v -0.385256 0.500000 -0.318713
v -0.364484 -0.500000 -0.342274
v -0.364484 0.500000 -0.342274
v -0.342273 -0.500000 -0.364485
v -0.342273 0.500000 -0.364485
v -0.318711 -0.500000 -0.385257
v -0.318711 0.500000 -0.385257
v -0.293892 -0.500000 -0.404509
v -0.293892 0.500000 -0.404509
v -0.267913 -0.500000 -0.422164
v -0.267913 0.500000 -0.422164
v -0.240876 -0.500000 -0.438154
v -0.240876 0.500000 -0.438154
v -0.212889 -0.500000 -0.452414
v -0.212889 0.500000 -0.452414
v -0.184061 -0.500000 -0.464889
v -0.184061 0.500000 -0.464889
v -0.154508 -0.500000 -0.475529
v -0.154508 0.500000 -0.475529
v -0.124344 -0.500000 -0.484292
v -0.124344 0.500000 -0.484292
v -0.093690 -0.500000 -0.491144
v -0.093690 0.500000 -0.491144
v -0.062666 -0.500000 -0.496057
v -0.062666 0.500000 -0.496057
v -0.031394 -0.500000 -0.499013
v -0.031394 0.500000 -0.499013
vt 1.000000 0.500000
vt 0.990000 0.500000
vt 0.990000 1.000000
vt 1.000000 1.000000
vt 0.980000 0.500000
vt 0.980000 1.000000
vt 0.970000 0.500000
vt 0.970000 1.000000
vt 0.960000 0.500000
vt 0.960000 1.000000
vt 0.950000 0.500000
vt 0.950000 1.000000
vt 0.940000 0.500000
vt 0.940000 1.000000
vt 0.930000 0.500000
vt 0.930000 1.000000
vt 0.920000 0.500000
vt 0.920000 1.000000
vt 0.910000 0.500000
vt 0.910000 1.000000
vt 0.900000 0.500000
vt 0.900000 1.000000
vt 0.890000 0.500000
vt 0.890000 1.000000
vt 0.880000 0.500000
vt 0.880000 1.000000
vt 0.870000 0.500000
vt 0.870000 1.000000
vt 0.860000 0.500000
vt 0.860000 1.000000
vt 0.850000 0.500000
vt 0.850000 1.000000
vt 0.840000 0.500000
vt 0.840000 1.000000
vt 0.830000 0.500000
vt 0.830000 1.000000
vt 0.820000 0.500000
vt 0.820000 1.000000
vt 0.810000 0.500000
vt 0.810000 1.000000
vt 0.800000 0.500000
vt 0.800000 1.000000
vt 0.790000 0.500000
vt 0.790000 1.000000
vt 0.780000 0.500000
vt 0.780000 1.000000
vt 0.770000 0.500000
vt 0.770000 1.000000
vt 0.760000 0.500000
vt 0.760000 1.000000
vt 0.750000 0.500000
vt 0.750000 1.000000
vt 0.740000 0.500000
vt 0.740000 1.000000
vt 0.730000 0.500000
vt 0.730000 1.000000
vt 0.720000 0.500000
vt 0.720000 1.000000
vt 0.710000 0.500000
vt 0.710000 1.000000
vt 0.700000 0.500000
vt 0.700000 1.000000
vt 0.690000 0.500000
vt 0.690000 1.000000
vt 0.680000 0.500000
vt 0.680000 1.000000
vt 0.670000 0.500000
vt 0.670000 1.000000
vt 0.660000 0.500000
vt 0.660000 1.000000
vt 0.650000 0.500000
vt 0.650000 1.000000
vt 0.640000 0.500000
vt 0.640000 1.000000
vt 0.630000 0.500000
vt 0.630000 1.000000
vt 0.620000 0.500000
vt 0.620000 1.000000
vt 0.610000 0.500000
vt 0.610000 1.000000
vt 0.600000 0.500000
vt 0.600000 1.000000
vt 0.590000 0.500000
vt 0.590000 1.000000
vt 0.580000 0.500000
vt 0.580000 1.000000
vt 0.570000 0.500000
vt 0.570000 1.000000
vt 0.560000 0.500000
vt 0.560000 1.000000
vt 0.550000 0.500000
vt 0.550000 1.000000
vt 0.540000 0.500000
vt 0.540000 1.000000
vt 0.530000 0.500000
vt 0.530000 1.000000
vt 0.520000 0.500000
vt 0.520000 1.000000
vt 0.510000 0.500000
vt 0.510000 1.000000
vt 0.500000 0.500000
vt 0.500000 1.000000
vt 0.490000 0.500000
vt 0.490000 1.000000
vt 0.480000 0.500000
vt 0.480000 1.000000
vt 0.470001 0.500000
vt 0.470001 1.000000
vt 0.460001 0.500000
vt 0.460001 1.000000
vt 0.450001 0.500000
vt 0.450001 1.000000
vt 0.440001 0.500000
vt 0.440001 1.000000
vt 0.430001 0.500000
vt 0.430001 1.000000
vt 0.420001 0.500000
vt 0.420001 1.000000
vt 0.410001 0.500000
vt 0.410001 1.000000
vt 0.400001 0.500000
vt 0.400001 1.000000
vt 0.390001 0.500000
vt 0.390001 1.000000
vt 0.380001 0.500000
vt 0.380001 1.000000
vt 0.370001 0.500000
vt 0.370001 1.000000
vt 0.360001 0.500000
vt 0.360001 1.000000
vt 0.350001 0.500000
vt 0.350001 1.000000
vt 0.340001 0.500000
vt 0.340001 1.000000
vt 0.330001 0.500000
vt 0.330001 1.000000
vt 0.320001 0.500000
vt 0.320001 1.000000
vt 0.310001 0.500000
vt 0.310001 1.000000
vt 0.300001 0.500000
vt 0.300001 1.000000
vt 0.290001 0.500000
vt 0.290001 1.000000
vt 0.280001 0.500000
vt 0.280001 1.000000
vt 0.270001 0.500000
vt 0.270001 1.000000
vt 0.260001 0.500000
vt 0.260001 1.000000
vt 0.250001 0.500000
vt 0.250001 1.000000
vt 0.240001 0.500000
vt 0.240001 1.000000
vt 0.230001 0.500000
vt 0.230001 1.000000
vt 0.220001 0.500000
vt 0.220001 1.000000
vt 0.210001 0.500000
vt 0.210001 1.000000
vt 0.200001 0.500000
vt 0.200001 1.000000
vt 0.190001 0.500000
vt 0.190001 1.000000
vt 0.180001 0.500000
vt 0.180001 1.000000
vt 0.170001 0.500000
vt 0.170001 1.000000
vt 0.160001 0.500000
vt 0.160001 1.000000
vt 0.150001 0.500000
vt 0.150001 1.000000
vt 0.140001 0.500000
vt 0.140001 1.000000
vt 0.130001 0.500000
vt 0.130001 1.000000
vt 0.120001 0.500000
vt 0.120001 1.000000
vt 0.110001 0.500000
vt 0.110001 1.000000
vt 0.100001 0.500000
vt 0.100001 1.000000
vt 0.090001 0.500000
vt 0.090001 1.000000
vt 0.080001 0.500000
vt 0.080001 1.000000
vt 0.070001 0.500000
vt 0.070001 1.000000
vt 0.060001 0.500000
vt 0.060001 1.000000
vt 0.050001 0.500000
vt 0.050001 1.000000
vt 0.040001 0.500000
vt 0.040001 1.000000
vt 0.030001 0.500000
vt 0.030001 1.000000
vt 0.020001 0.500000
vt 0.020001 1.000000
vt 0.010001 0.500000
vt 0.010001 1.000000
vt 0.000001 0.500000
vt 0.000001 1.000000
vn 0.0000 0.0233 0.9997
vn -0.0628 0.0233 0.9978
vn -0.0628 -0.0233 0.9978
vn -0.0000 -0.0233 0.9997
vn -0.1253 0.0233 0.9918
vn -0.1253 -0.0233 0.9918
vn -0.1873 0.0233 0.9820
vn -0.1873 -0.0233 0.9820
vn -0.2486 0.0233 0.9683
vn -0.2486 -0.0233 0.9683
vn -0.3089 0.0233 0.9508
vn -0.3089 -0.0233 0.9508
vn -0.3680 0.0233 0.9295
vn -0.3680 -0.0233 0.9295
vn -0.4257 0.0233 0.9046
vn -0.4257 -0.0233 0.9046
vn -0.4816 0.0233 0.8761
vn -0.4816 -0.0233 0.8761
vn -0.5357 0.0233 0.8441
vn -0.5357 -0.0233 0.8441
vn -0.5876 0.0233 0.8088
vn -0.5876 -0.0233 0.8088
vn -0.6373 0.0233 0.7703
vn -0.6373 -0.0233 0.7703
vn -0.6844 0.0233 0.7288
vn -0.6844 -0.0233 0.7288
vn -0.7288 0.0233 0.6844
vn -0.7288 -0.0233 0.6844
vn -0.7703 0.0233 0.6373
vn -0.7703 -0.0233 0.6373
vn -0.8088 0.0233 0.5876
vn -0.8088 -0.0233 0.5876
vn -0.8441 0.0233 0.5357
vn -0.8441 -0.0233 0.5357
vn -0.8761 0.0233 0.4816
vn -0.8761 -0.0233 0.4816
vn -0.9046 0.0233 0.4257
vn -0.9046 -0.0233 0.4257
vn -0.9295 0.0233 0.3680
vn -0.9295 -0.0233 0.3680
vn -0.9508 0.0233 0.3089
vn -0.9508 -0.0233 0.3089
vn -0.9683 0.0233 0.2486
vn -0.9683 -0.0233 0.2486
vn -0.9820 0.0232 0.1873
vn -0.9820 -0.0232 0.1873
vn -0.9918 0.0232 0.1253
vn -0.9918 -0.0232 0.1253
vn -0.9978 0.0233 0.0628
vn -0.9978 -0.0233 0.0628
vn -0.9997 0.0232 0.0000
vn -0.9997 -0.0232 -0.0000
vn -0.9978 0.0233 -0.0628
vn -0.9978 -0.0233 -0.0628
vn -0.9918 0.0233 -0.1253
vn -0.9918 -0.0233 -0.1253
vn -0.9820 0.0233 -0.1873
vn -0.9820 -0.0233 -0.1873
vn -0.9683 0.0233 -0.2486
vn -0.9683 -0.0233 -0.2486
vn -0.9508 0.0233 -0.3089
vn -0.9508 -0.0233 -0.3089
vn -0.9295 0.0233 -0.3680
vn -0.9295 -0.0233 -0.3680
vn -0.9046 0.0233 -0.4257
vn -0.9046 -0.0233 -0.4257
vn -0.8761 0.0233 -0.4816
vn -0.8761 -0.0233 -0.4816
vn -0.8441 0.0233 -0.5357
vn -0.8441 -0.0233 -0.5357
vn -0.8088 0.0233 -0.5876
vn -0.8088 -0.0233 -0.5876
vn -0.7703 0.0232 -0.6373
vn -0.7703 -0.0232 -0.6373
vn -0.7288 0.0232 -0.6844
vn -0.7288 -0.0232 -0.6844
vn -0.6844 0.0233 -0.7288
vn -0.6844 -0.0233 -0.7288
vn -0.6373 0.0233 -0.7703
vn -0.6372 -0.0233 -0.7703
vn -0.5876 0.0233 -0.8088
vn -0.5876 -0.0233 -0.8088
vn -0.5357 0.0233 -0.8441
vn -0.5357 -0.0233 -0.8441
vn -0.4816 0.0232 -0.8761
vn -0.4816 -0.0232 -0.8761
vn -0.4257 0.0232 -0.9046
vn -0.4257 -0.0232 -0.9046
vn -0.3680 0.0233 -0.9295
vn -0.3680 -0.0233 -0.9295
vn -0.3089 0.0233 -0.9508
vn -0.3089 -0.0233 -0.9508
vn -0.2486 0.0232 -0.9683
vn -0.2486 -0.0232 -0.9683
vn -0.1873 0.0232 -0.9820
vn -0.1873 -0.0232 -0.9820
vn -0.1253 0.0232 -0.9918
vn -0.1253 -0.0232 -0.9918
vn -0.0628 0.0233 -0.9978
vn -0.0628 -0.0233 -0.9978
vn -0.0000 0.0232 -0.9997
vn 0.0000 -0.0232 -0.9997
vn 0.0628 0.0232 -0.9978
vn 0.0628 -0.0232 -0.9978
vn 0.1253 0.0233 -0.9918
vn 0.1253 -0.0233 -0.9918
vn 0.1873 0.0233 -0.9820
vn 0.1873 -0.0233 -0.9820
vn 0.2486 0.0233 -0.9683
vn 0.2486 -0.0233 -0.9683
vn 0.3089 0.0233 -0.9508
vn 0.3089 -0.0233 -0.9508
vn 0.3680 0.0233 -0.9295
vn 0.3680 -0.0233 -0.9295
vn 0.4257 0.0233 -0.9046
vn 0.4257 -0.0233 -0.9046
vn 0.4816 0.0233 -0.8761
vn 0.4816 -0.0233 -0.8761
vn 0.5357 0.0233 -0.8441
vn 0.5357 -0.0233 -0.8441
vn 0.5876 0.0233 -0.8088
vn 0.5876 -0.0233 -0.8088
vn 0.6373 0.0232 -0.7703
vn 0.6373 -0.0232 -0.7703
vn 0.6844 0.0232 -0.7288
vn 0.6844 -0.0232 -0.7288
vn 0.7288 0.0233 -0.6844
vn 0.7288 -0.0233 -0.6844
vn 0.7703 0.0233 -0.6373
vn 0.7703 -0.0233 -0.6372
vn 0.8088 0.0233 -0.5876
vn 0.8088 -0.0233 -0.5876
vn 0.8441 0.0233 -0.5357
vn 0.8441 -0.0233 -0.5357
vn 0.8761 0.0233 -0.4816
vn 0.8761 -0.0233 -0.4816
vn 0.9046 0.0233 -0.4257
vn 0.9046 -0.0233 -0.4257
vn 0.9295 0.0232 -0.3680
vn 0.9295 -0.0232 -0.3680
vn 0.9508 0.0232 -0.3089
vn 0.9508 -0.0232 -0.3089
vn 0.9683 0.0233 -0.2486
vn 0.9683 -0.0233 -0.2486
vn 0.9820 0.0233 -0.1873
vn 0.9820 -0.0233 -0.1873
vn 0.9918 0.0233 -0.1253
vn 0.9918 -0.0233 -0.1253
vn 0.9978 0.0233 -0.0628
vn 0.9978 -0.0233 -0.0628
vn 0.9997 0.0233 0.0000
vn 0.9997 -0.0233 0.0000
vn 0.9978 0.0233 0.0628
vn 0.9978 -0.0233 0.0628
vn 0.9918 0.0233 0.1253
vn 0.9918 -0.0233 0.1253
vn 0.9820 0.0233 0.1873
vn 0.9820 -0.0233 0.1873
vn 0.9683 0.0233 0.2486
vn 0.9683 -0.0233 0.2486
vn 0.9508 0.0233 0.3089
vn 0.9508 -0.0233 0.3089
vn 0.9295 0.0233 0.3680
vn 0.9295 -0.0233 0.3680
vn 0.9046 0.0233 0.4257
vn 0.9046 -0.0233 0.4257
vn 0.8761 0.0233 0.4816
vn 0.8761 -0.0233 0.4816
vn 0.8441 0.0233 0.5357
vn 0.8441 -0.0233 0.5357
vn 0.8088 0.0233 0.5876
vn 0.8088 -0.0233 0.5876
vn 0.7703 0.0233 0.6373
vn 0.7703 -0.0233 0.6373
vn 0.7288 0.0233 0.6844
vn 0.7288 -0.0233 0.6844
vn 0.6844 0.0233 0.7288
vn 0.6844 -0.0233 0.7288
vn 0.6373 0.0233 0.7703
vn 0.6372 -0.0233 0.7703
vn 0.5876 0.0233 0.8088
vn 0.5876 -0.0233 0.8088
vn 0.5357 0.0233 0.8441
vn 0.5357 -0.0233 0.8441
vn 0.4816 0.0233 0.8761
vn 0.4816 -0.0233 0.8761
vn 0.4257 0.0233 0.9046
vn 0.4257 -0.0233 0.9046
vn 0.3680 0.0233 0.9295
vn 0.3680 -0.0233 0.9295
vn 0.3089 0.0233 0.9508
vn 0.3089 -0.0233 0.9508
vn 0.2486 0.0233 0.9683
vn 0.2486 -0.0233 0.9683
vn 0.1873 0.0233 0.9820
vn 0.1873 -0.0233 0.9820
vn 0.1253 0.0233 0.9918
vn 0.1253 -0.0233 0.9918
vn 0.0628 0.0233 0.9978
vn 0.0628 -0.0233 0.9978
usemtl None
s 1
f 1/1/1 3/2/2 4/3/3 2/4/4
f 3/2/2 5/5/5 6/6/6 4/3/3
f 5/5/5 7/7/7 8/8/8 6/6/6
f 7/7/7 9/9/9 10/10/10 8/8/8
f 9/9/9 11/11/11 12/12/12 10/10/10
f 11/11/11 13/13/13 14/14/14 12/12/12
f 13/13/13 15/15/15 16/16/16 14/14/14
f 15/15/15 17/17/17 18/18/18 16/16/16
f 17/17/17 19/19/19 20/20/20 18/18/18
f 19/19/19 21/21/21 22/22/22 20/20/20
f 21/21/21 23/23/23 24/24/24 22/22/22
f 23/23/23 25/25/25 26/26/26 24/24/24
f 25/25/25 27/27/27 28/28/28 26/26/26
f 27/27/27 29/29/29 30/30/30 28/28/28
f 29/29/29 31/31/31 32/32/32 30/30/30
f 31/31/31 33/33/33 34/34/34 32/32/32
f 33/33/33 35/35/35 36/36/36 34/34/34
f 35/35/35 37/37/37 38/38/38 36/36/36
f 37/37/37 39/39/39 40/40/40 38/38/38
f 39/39/39 41/41/41 42/42/42 40/40/40
f 41/41/41 43/43/43 44/44/44 42/42/42
f 43/43/43 45/45/45 46/46/46 44/44/44
f 45/45/45 47/47/47 48/48/48 46/46/46
f 47/47/47 49/49/49 50/50/50 48/48/48
f 49/49/49 51/51/51 52/52/52 50/50/50
f 51/51/51 53/53/53 54/54/54 52/52/52
f 53/53/53 55/55/55 56/56/56 54/54/54
f 55/55/55 57/57/57 58/58/58 56/56/56
f 57/57/57 59/59/59 60/60/60 58/58/58
f 59/59/59 61/61/61 62/62/62 60/60/60
f 61/61/61 63/63/63 64/64/64 62/62/62
f 63/63/63 65/65/65 66/66/66 64/64/64
f 65/65/65 67/67/67 68/68/68 66/66/66
f 67/67/67 69/69/69 70/70/70 68/68/68
f 69/69/69 71/71/71 72/72/72 70/70/70
f 71/71/71 73/73/73 74/74/74 72/72/72
f 73/73/73 75/75/75 76/76/76 74/74/74
f 75/75/75 77/77/77 78/78/78 76/76/76
f 77/77/77 79/79/79 80/80/80 78/78/78
f 79/79/79 81/81/81 82/82/82 80/80/80
f 81/81/81 83/83/83 84/84/84 82/82/82
f 83/83/83 85/85/85 86/86/86 84/84/84
f 85/85/85 87/87/87 88/88/88 86/86/86
f 87/87/87 89/89/89 90/90/90 88/88/88
f 89/89/89 91/91/91 92/92/92 90/90/90
f 91/91/91 93/93/93 94/94/94 92/92/92
f 93/93/93 95/95/95 96/96/96 94/94/94
f 95/95/95 97/97/97 98/98/98 96/96/96
f 97/97/97 99/99/99 100/100/100 98/98/98
f 99/99/99 101/101/101 102/102/102 100/100/100
f 101/101/101 103/103/103 104/104/104 102/102/102
f 103/103/103 105/105/105 106/106/106 104/104/104
f 105/105/105 107/107/107 108/108/108 106/106/106
f 107/107/107 109/109/109 110/110/110 108/108/108
f 109/109/109 111/111/111 112/112/112 110/110/110
f 111/111/111 113/113/113 114/114/114 112/112/112
f 113/113/113 115/115/115 116/116/116 114/114/114
f 115/115/115 117/117/117 118/118/118 116/116/116
f 117/117/117 119/119/119 120/120/120 118/118/118
f 119/119/119 121/121/121 122/122/122 120/120/120
f 121/121/121 123/123/123 124/124/124 122/122/122
f 123/123/123 125/125/125 126/126/126 124/124/124
f 125/125/125 127/127/127 128/128/128 126/126/126
f 127/127/127 129/129/129 130/130/130 128/128/128
f 129/129/129 131/131/131 132/132/132 130/130/130
f 131/131/131 133/133/133 134/134/134 132/132/132
f 133/133/133 135/135/135 136/136/136 134/134/134
f 135/135/135 137/137/137 138/138/138 136/136/136
f 137/137/137 139/139/139 140/140/140 138/138/138
f 139/139/139 141/141/141 142/142/142 140/140/140
f 141/141/141 143/143/143 144/144/144 142/142/142
f 143/143/143 145/145/145 146/146/146 144/144/144
f 145/145/145 147/147/147 148/148/148 146/146/146
f 147/147/147 149/149/149 150/150/150 148/148/148
f 149/149/149 151/151/151 152/152/152 150/150/150
f 151/151/151 153/153/153 154/154/154 152/152/152
f 153/153/153 155/155/155 156/156/156 154/154/154
f 155/155/155 157/157/157 158/158/158 156/156/156
f 157/157/157 159/159/159 160/160/160 158/158/158
f 159/159/159 161/161/161 162/162/162 160/160/160
f 161/161/161 163/163/163 164/164/164 162/162/162
f 163/163/163 165/165/165 166/166/166 164/164/164
f 165/165/165 167/167/167 168/168/168 166/166/166
f 167/167/167 169/169/169 170/170/170 168/168/168
f 169/169/169 171/171/171 172/172/172 170/170/170
f 171/171/171 173/173/173 174/174/174 172/172/172
f 173/173/173 175/175/175 176/176/176 174/174/174
f 175/175/175 177/177/177 178/178/178 176/176/176
f 177/177/177 179/179/179 180/180/180 178/178/178
f 179/179/179 181/181/181 182/182/182 180/180/180
f 181/181/181 183/183/183 184/184/184 182/182/182
f 183/183/183 185/185/185 186/186/186 184/184/184
f 185/185/185 187/187/187 188/188/188 186/186/186
f 187/187/187 189/189/189 190/190/190 188/188/188
f 189/189/189 191/191/191 192/192/192 190/190/190
f 191/191/191 193/193/193 194/194/194 192/192/192
f 193/193/193 195/195/195 196/196/196 194/194/194
f 195/195/195 197/197/197 198/198/198 196/196/196
f 197/197/197 199/199/199 200/200/200 198/198/198
f 199/199/199 1/201/1 2/202/4 200/200/200
`